# ProBuilder 5.1.1
# https://unity3d.com/unity/features/worldbuilding/probuilder
# 19/11/2023 11:43:39

mtllib ./Cube_(77).mtl
o Cube (77)

g Cube (77)
v -1.806986 -2.829999 -29.7
v -1.806986 -2.829999 -32.59691
v -1.806986 0.02929282 -29.7
v -1.806986 0.02929282 -32.59691
v 2.14 -2.829999 -32.59691
v 2.14 0.02929282 -32.59691
v 2.139999 -2.829999 -29.7
v 2.139999 0.02929282 -29.7

vt 0 0
vt -1 0
vt 0 1
vt -1 1
vt 1 0
vt 1 1

vn -3.946986 0 -4.182707E-07
vn 3.884751E-07 0 -2.896909
vn 3.946986 0 4.182707E-07
vn -3.884751E-07 0 2.896909
vn 0 2.859292 0
vn 0 -2.859292 0

usemtl Platform_Move
f 3/3/1 4/4/1 2/2/1 1/1/1
f 4/6/2 6/3/2 5/1/2 2/5/2
f 6/6/3 8/3/3 7/1/3 5/5/3
f 8/3/4 3/4/4 1/2/4 7/1/4
f 8/1/5 6/5/5 4/6/5 3/3/5
f 1/3/6 2/4/6 5/2/6 7/1/6

