# ProBuilder 5.1.1
# https://unity3d.com/unity/features/worldbuilding/probuilder
# 19/11/2023 11:43:38

mtllib ./Cube_(39).mtl
o Cube (39)

g Cube (39)
v -21.80382 0 1.669998
v -21.80382 0 1.406518
v -21.80382 9.5 1.669998
v -21.80382 9.5 1.406518
v -7.42 0 1.40652
v -7.42 9.5 1.40652
v -7.42 0 1.67
v -7.42 9.5 1.67

vt 0 0
vt -1 0
vt 0 1
vt -1 1
vt 1 0
vt 1 1

vn -14.38382 0 -1.714685E-06
vn 3.140926E-08 0 -0.26348
vn 14.38382 0 1.714685E-06
vn -3.140926E-08 0 0.26348
vn 0 9.5 0
vn 0 -9.5 0

usemtl ProBuilderDefault
f 3/3/1 4/4/1 2/2/1 1/1/1
f 4/6/2 6/3/2 5/1/2 2/5/2
f 6/6/3 8/3/3 7/1/3 5/5/3
f 8/3/4 3/4/4 1/2/4 7/1/4
f 8/1/5 6/5/5 4/6/5 3/3/5
f 1/3/6 2/4/6 5/2/6 7/1/6

