# ProBuilder 5.1.1
# https://unity3d.com/unity/features/worldbuilding/probuilder
# 19/11/2023 11:43:38

mtllib ./Cube_(52).mtl
o Cube (52)

g Cube (52)
v 32.46 -9.473037 -29.73
v 26.66077 -9.473037 -29.73
v 32.46 0.02696323 -29.73
v 26.66077 0.02696323 -29.73
v 26.66077 -9.473037 -35.45
v 26.66077 0.02696323 -35.45
v 32.46 -9.473037 -35.45
v 32.46 0.02696323 -35.45

vt 0 0
vt -1 0
vt 0 1
vt -1 1
vt 1 0
vt 1 1

vn 0 0 5.72
vn -5.799225 0 0
vn 0 0 -5.72
vn 5.799225 0 0
vn 0 9.5 0
vn 0 -9.5 0

usemtl ProBuilderDefault
f 3/3/1 4/4/1 2/2/1 1/1/1
f 4/6/2 6/3/2 5/1/2 2/5/2
f 6/6/3 8/3/3 7/1/3 5/5/3
f 8/3/4 3/4/4 1/2/4 7/1/4
f 8/1/5 6/5/5 4/6/5 3/3/5
f 1/3/6 2/4/6 5/2/6 7/1/6

