# ProBuilder 5.1.1
# https://unity3d.com/unity/features/worldbuilding/probuilder
# 19/11/2023 11:43:39

mtllib ./Cube_(63).mtl
o Cube (63)

g Cube (63)
v 3.937565 -0.2 13.02
v 3.937568 -0.2 -9.980006
v 3.937565 1.915161 13.02
v 3.937568 1.915161 -9.980006
v 40.93 -0.2 -9.980001
v 40.93 1.915161 -9.980001
v 40.93 -0.2 13.02
v 40.93 1.915161 13.02

vt 0 0
vt -1 0
vt 0 1
vt -1 1
vt 1 0
vt 1 1

vn -36.99244 0 -4.409841E-06
vn 2.741814E-06 0 -23
vn 36.99244 0 4.409841E-06
vn -2.741814E-06 0 23
vn 0 2.115161 0
vn 0 -2.115161 0

usemtl ProBuilderDefault
f 3/3/1 4/4/1 2/2/1 1/1/1
f 4/6/2 6/3/2 5/1/2 2/5/2
f 6/6/3 8/3/3 7/1/3 5/5/3
f 8/3/4 3/4/4 1/2/4 7/1/4
f 8/1/5 6/5/5 4/6/5 3/3/5
f 1/3/6 2/4/6 5/2/6 7/1/6

