# ProBuilder 5.1.1
# https://unity3d.com/unity/features/worldbuilding/probuilder
# 19/11/2023 11:43:39

mtllib ./Cube_(55).mtl
o Cube (55)

g Cube (55)
v 46.71 0.1573448 -38.34961
v 43.7398 0.1573448 -38.34961
v 46.71 9.657345 -38.34961
v 43.7398 9.657345 -38.34961
v 43.7398 0.1573448 -41.09
v 43.7398 9.657345 -41.09
v 46.71 0.1573448 -41.09
v 46.71 9.657345 -41.09

vt 0 0
vt -1 0
vt 0 1
vt -1 1
vt 1 0
vt 1 1

vn 0 0 2.740395
vn -2.970201 0 0
vn 0 0 -2.740395
vn 2.970201 0 0
vn 0 9.5 0
vn 0 -9.5 0

usemtl ProBuilderDefault
f 3/3/1 4/4/1 2/2/1 1/1/1
f 4/6/2 6/3/2 5/1/2 2/5/2
f 6/6/3 8/3/3 7/1/3 5/5/3
f 8/3/4 3/4/4 1/2/4 7/1/4
f 8/1/5 6/5/5 4/6/5 3/3/5
f 1/3/6 2/4/6 5/2/6 7/1/6

