# ProBuilder 5.1.1
# https://unity3d.com/unity/features/worldbuilding/probuilder
# 19/11/2023 11:43:38

mtllib ./Plane_(15).mtl
o Plane (15)

g Plane (15)
v 38.08 -9.473037 -41.07
v 38.08 -9.473037 -38.68322
v 31.41333 -9.473037 -41.07
v 31.41333 -9.473037 -38.68322
v 38.08 -9.473037 -36.29644
v 31.41333 -9.473037 -36.29644
v 38.08 -9.473037 -33.90966
v 31.41333 -9.473037 -33.90966
v 38.08 -9.473037 -31.52288
v 31.41333 -9.473037 -31.52288
v 38.08 -9.473037 -29.1361
v 31.41333 -9.473037 -29.1361
v 38.08 -9.473037 -26.74932
v 31.41333 -9.473037 -26.74932
v 24.74667 -9.473037 -41.07
v 24.74667 -9.473037 -38.68322
v 24.74667 -9.473037 -36.29644
v 24.74667 -9.473037 -33.90966
v 24.74667 -9.473037 -31.52288
v 24.74667 -9.473037 -29.1361
v 24.74667 -9.473037 -26.74932
v 18.08 -9.473037 -41.07
v 18.08 -9.473037 -38.68322
v 18.08 -9.473037 -36.29644
v 18.08 -9.473037 -33.90966
v 18.08 -9.473037 -31.52288
v 18.08 -9.473037 -29.1361
v 18.08 -9.473037 -26.74932
v 11.41334 -9.473037 -41.07
v 11.41334 -9.473037 -38.68322
v 11.41334 -9.473037 -36.29644
v 11.41334 -9.473037 -33.90966
v 11.41334 -9.473037 -31.52288
v 11.41334 -9.473037 -29.1361
v 11.41334 -9.473037 -26.74932
v 4.74667 -9.473037 -41.07
v 4.74667 -9.473037 -38.68322
v 4.74667 -9.473037 -36.29644
v 4.74667 -9.473037 -33.90966
v 4.74667 -9.473037 -31.52288
v 4.74667 -9.473037 -29.1361
v 4.74667 -9.473037 -26.74932
v -1.919998 -9.473037 -41.07
v -1.919998 -9.473037 -38.68322
v -1.919998 -9.473037 -36.29644
v -1.919998 -9.473037 -33.90966
v -1.919998 -9.473037 -31.52288
v -1.919998 -9.473037 -29.1361
v -1.919998 -9.473037 -26.74932

vt 0 0
vt 0 0.8333334
vt 0.8333334 0
vt 0.8333334 0.8333334
vt 0 1.666667
vt 0.8333334 1.666667
vt 0 2.5
vt 0.8333334 2.5
vt 0 3.333333
vt 0.8333334 3.333333
vt 0 4.166667
vt 0.8333334 4.166667
vt 0 5
vt 0.8333334 5
vt 1.666667 0
vt 1.666667 0.8333334
vt 1.666667 1.666667
vt 1.666667 2.5
vt 1.666667 3.333333
vt 1.666667 4.166667
vt 1.666667 5
vt 2.5 0
vt 2.5 0.8333334
vt 2.5 1.666667
vt 2.5 2.5
vt 2.5 3.333333
vt 2.5 4.166667
vt 2.5 5
vt 3.333333 0
vt 3.333333 0.8333334
vt 3.333333 1.666667
vt 3.333333 2.5
vt 3.333333 3.333333
vt 3.333333 4.166667
vt 3.333333 5
vt 4.166667 0
vt 4.166667 0.8333334
vt 4.166667 1.666667
vt 4.166667 2.5
vt 4.166667 3.333333
vt 4.166667 4.166667
vt 4.166667 5
vt 5 0
vt 5 0.8333334
vt 5 1.666667
vt 5 2.5
vt 5 3.333333
vt 5 4.166667
vt 5 5

vn 0 1 0

usemtl ProBuilderDefault
f 3/3/1 4/4/1 2/2/1 1/1/1
f 4/4/1 6/6/1 5/5/1 2/2/1
f 6/6/1 8/8/1 7/7/1 5/5/1
f 8/8/1 10/10/1 9/9/1 7/7/1
f 10/10/1 12/12/1 11/11/1 9/9/1
f 12/12/1 14/14/1 13/13/1 11/11/1
f 15/15/1 16/16/1 4/4/1 3/3/1
f 16/16/1 17/17/1 6/6/1 4/4/1
f 17/17/1 18/18/1 8/8/1 6/6/1
f 18/18/1 19/19/1 10/10/1 8/8/1
f 19/19/1 20/20/1 12/12/1 10/10/1
f 20/20/1 21/21/1 14/14/1 12/12/1
f 22/22/1 23/23/1 16/16/1 15/15/1
f 23/23/1 24/24/1 17/17/1 16/16/1
f 24/24/1 25/25/1 18/18/1 17/17/1
f 25/25/1 26/26/1 19/19/1 18/18/1
f 26/26/1 27/27/1 20/20/1 19/19/1
f 27/27/1 28/28/1 21/21/1 20/20/1
f 29/29/1 30/30/1 23/23/1 22/22/1
f 30/30/1 31/31/1 24/24/1 23/23/1
f 31/31/1 32/32/1 25/25/1 24/24/1
f 32/32/1 33/33/1 26/26/1 25/25/1
f 33/33/1 34/34/1 27/27/1 26/26/1
f 34/34/1 35/35/1 28/28/1 27/27/1
f 36/36/1 37/37/1 30/30/1 29/29/1
f 37/37/1 38/38/1 31/31/1 30/30/1
f 38/38/1 39/39/1 32/32/1 31/31/1
f 39/39/1 40/40/1 33/33/1 32/32/1
f 40/40/1 41/41/1 34/34/1 33/33/1
f 41/41/1 42/42/1 35/35/1 34/34/1
f 43/43/1 44/44/1 37/37/1 36/36/1
f 44/44/1 45/45/1 38/38/1 37/37/1
f 45/45/1 46/46/1 39/39/1 38/38/1
f 46/46/1 47/47/1 40/40/1 39/39/1
f 47/47/1 48/48/1 41/41/1 40/40/1
f 48/48/1 49/49/1 42/42/1 41/41/1

